<svg id="Layer_2" data-name="Layer 2" xmlns="http://www.w3.org/2000/svg" viewBox="0 0 400 110"><defs><style>.cls-1{fill:#fff;}.cls-2{fill:#e44643;}</style></defs><polygon class="cls-1" points="56.97 62.32 56.3 62.32 41.69 26.71 25.2 26.71 25.2 83.29 38.15 83.29 38.15 47.95 38.62 47.95 52.43 82.96 60.8 82.96 74.62 48.12 75.09 48.12 75.09 83.29 88.07 83.29 88.07 26.71 71.55 26.71 56.97 62.32"/><path class="cls-1" d="M111.29,26.71,92.12,83.29h14.3l3.82-12.08H130l3.82,12.08h14.31L128.94,26.71ZM113.46,61l6.42-20.3h.44L126.75,61Z"/><path class="cls-1" d="M186.09,61.66a16.13,16.13,0,0,0,7.25-6.29,18.4,18.4,0,0,0,2.55-9.87,19.39,19.39,0,0,0-2.5-10A16.52,16.52,0,0,0,186.24,29a24.52,24.52,0,0,0-10.93-2.28H152.16V83.29h13.31V63.81h7.37l10.39,19.48h14.62L186.06,61.67ZM165.47,37.51h7a13.71,13.71,0,0,1,5.27.89A6.66,6.66,0,0,1,181,41.06a8.35,8.35,0,0,1,1.09,4.44A8.15,8.15,0,0,1,181,49.85a6.35,6.35,0,0,1-3.21,2.55,14.52,14.52,0,0,1-5.3.83h-7Z"/><path class="cls-1" d="M220.54,39.68a13.78,13.78,0,0,1,12.71-.88,9.54,9.54,0,0,1,3.86,3.27,11.13,11.13,0,0,1,1.83,5h13.48a23.68,23.68,0,0,0-4-11.4,21.71,21.71,0,0,0-8.76-7.26,28.7,28.7,0,0,0-12.22-2.5,27.38,27.38,0,0,0-13.67,3.41,24.15,24.15,0,0,0-9.56,10A32.8,32.8,0,0,0,200.65,55a32.85,32.85,0,0,0,3.47,15.63,24.16,24.16,0,0,0,9.51,10,27.4,27.4,0,0,0,13.76,3.44,26.78,26.78,0,0,0,12.8-2.93,23,23,0,0,0,8.58-7.61,22,22,0,0,0,3.65-9.93l-13.48-.08a10.91,10.91,0,0,1-2,4.75,9.78,9.78,0,0,1-3.88,3,13.21,13.21,0,0,1-5.4,1,12.62,12.62,0,0,1-7.1-2,12.47,12.47,0,0,1-4.64-5.87,24.52,24.52,0,0,1-1.63-9.5,24.32,24.32,0,0,1,1.63-9.37A12.9,12.9,0,0,1,220.54,39.68Z"/><path class="cls-1" d="M292.51,62.1a10.66,10.66,0,0,1-1.31,5.33,9.18,9.18,0,0,1-3.7,3.66,12.14,12.14,0,0,1-11,0,9.27,9.27,0,0,1-3.71-3.66,10.57,10.57,0,0,1-1.33-5.33V26.71H258.18V63.23a20,20,0,0,0,3,10.94,19.68,19.68,0,0,0,8.35,7.28,31.55,31.55,0,0,0,25,0,19.34,19.34,0,0,0,11.37-18.22V26.71H292.51Z"/><path class="cls-1" d="M354.61,59.05a15.85,15.85,0,0,0-5.81-5.58A32.53,32.53,0,0,0,339.38,50l-4.89-1.13a19,19,0,0,1-6.34-2.41,4.35,4.35,0,0,1-2.09-4,4.83,4.83,0,0,1,1-2.87,6,6,0,0,1,2.77-2,12.66,12.66,0,0,1,4.48-.7,12.44,12.44,0,0,1,4.6.77,6.56,6.56,0,0,1,3,2.24,7.12,7.12,0,0,1,1.24,3.56h12.79a16.52,16.52,0,0,0-2.72-9.21,17.51,17.51,0,0,0-7.53-6.2,27.12,27.12,0,0,0-11.3-2.21,28.35,28.35,0,0,0-11.41,2.19,18.41,18.41,0,0,0-7.84,6.18,15.21,15.21,0,0,0-2.79,9.12,13.06,13.06,0,0,0,4,10Q320.4,57.3,328,59.06l5.94,1.38a30.89,30.89,0,0,1,5.22,1.62,8.06,8.06,0,0,1,3,2,4.19,4.19,0,0,1,1,2.79A5,5,0,0,1,342,70.07a7.08,7.08,0,0,1-3.13,2.13,13.79,13.79,0,0,1-4.79.76,14.39,14.39,0,0,1-5.4-.94,8.12,8.12,0,0,1-3.63-2.79,8.44,8.44,0,0,1-1.47-4.56H310.81a19.82,19.82,0,0,0,3,10.72,17.33,17.33,0,0,0,8.1,6.49A32.57,32.57,0,0,0,334.27,84a31.46,31.46,0,0,0,12-2.06A16.8,16.8,0,0,0,354,76.08a15.82,15.82,0,0,0,2.69-9.17A15.17,15.17,0,0,0,354.61,59.05Z"/><circle class="cls-2" cx="370.8" cy="35.29" r="8"/><path class="cls-2" d="M370.8,51.29a8,8,0,1,0,0,16v9a33.27,33.27,0,0,0,5.25-7.5c1.25-2.5,2.75-5.5,2.75-9.5A8,8,0,0,0,370.8,51.29Z"/></svg>