<svg id="Layer_2" data-name="Layer 2" xmlns="http://www.w3.org/2000/svg" viewBox="0 0 110 110"><defs><style>.cls-1{fill:#fff;}.cls-2{fill:#e44643;}</style></defs><polygon class="cls-1" points="51.47 62.32 50.8 62.32 36.19 26.71 19.7 26.71 19.7 83.29 32.65 83.29 32.65 47.95 33.12 47.95 46.93 82.96 55.3 82.96 69.12 48.12 69.59 48.12 69.59 83.29 82.57 83.29 82.57 26.71 66.05 26.71 51.47 62.32"/><circle class="cls-2" cx="95.8" cy="33.79" r="6.5"/><path class="cls-2" d="M95.8,46.79a6.5,6.5,0,0,0,0,13V67.1A26.93,26.93,0,0,0,100.07,61a16.62,16.62,0,0,0,2.23-7.72A6.5,6.5,0,0,0,95.8,46.79Z"/></svg>